<svg id="wish-icon" xmlns="http://www.w3.org/2000/svg" width="24" height="24" viewBox="0 0 24 24">
  <rect id="wish-icon-2" data-name="wish-icon" width="24" height="24" fill="none"/>
  <g id="Group">
    <path id="Vector" d="M20.135,1.865A6.366,6.366,0,0,1,22,6.359c0,6.332-10.213,12.547-10.636,12.791a.687.687,0,0,1-.708,0C10.213,18.906,0,12.691,0,6.359A6.359,6.359,0,0,1,11,2.014a6.351,6.351,0,0,1,9.135-.15Zm.49,4.495A4.984,4.984,0,0,0,11.56,3.5a.688.688,0,0,1-1.124,0A4.984,4.984,0,0,0,1.375,6.359c0,4.957,7.848,10.257,9.625,11.392,1.777-1.138,9.625-6.438,9.625-11.392Z" transform="translate(1 3)" fill="#212121"/>
  </g>
</svg>
