<svg id="Home-icon" xmlns="http://www.w3.org/2000/svg" width="24" height="24" viewBox="0 0 24 24">
  <rect id="Home-icon-2" data-name="Home-icon" width="24" height="24" fill="none"/>
  <g id="Group">
    <g id="Group-2" data-name="Group">
      <g id="Group-3" data-name="Group">
        <g id="Group-4" data-name="Group">
          <path id="Vector" d="M17.25,22.528H2.55A2.553,2.553,0,0,1,0,19.978V8.616a2.507,2.507,0,0,1,.938-1.95L8.287.591a2.5,2.5,0,0,1,3.225,0l7.35,6.037a2.507,2.507,0,0,1,.938,1.95V19.941a2.561,2.561,0,0,1-2.55,2.587Zm-7.35-21a1.123,1.123,0,0,0-.675.225L1.875,7.828a1.055,1.055,0,0,0-.375.788V19.978a1.048,1.048,0,0,0,1.05,1.05h14.7a1.048,1.048,0,0,0,1.05-1.05V8.616a1.055,1.055,0,0,0-.375-.787l-7.35-6.075A1.123,1.123,0,0,0,9.9,1.528Z" transform="translate(2 1)" fill="#fff"/>
        </g>
      </g>
      <g id="Group-5" data-name="Group">
        <g id="Group-6" data-name="Group">
          <path id="Vector-2" data-name="Vector" d="M9.75,1.5h-9A.75.75,0,0,1,.75,0h9a.75.75,0,0,1,0,1.5Z" transform="translate(6.65 18.728)" fill="#fff"/>
        </g>
      </g>
    </g>
  </g>
</svg>
