<svg xmlns="http://www.w3.org/2000/svg" width="22.5" height="22.5" viewBox="0 0 22.5 22.5">
  <g id="Group" transform="translate(-0.75 -0.75)">
    <g id="Group_8" data-name="Group 8">
      <path id="Vector" d="M20.3,8.25a2.2,2.2,0,0,1,2.2,2.2v1.6a2.2,2.2,0,0,1-2.2,2.2h-.1a.693.693,0,0,0-.64.435.7.7,0,0,0,.139.776l.068.068a2.2,2.2,0,0,1,0,3.11l-1.133,1.132a2.2,2.2,0,0,1-3.11,0l-.068-.068a.717.717,0,0,0-1.211.5v.1a2.2,2.2,0,0,1-2.2,2.2h-1.6a2.2,2.2,0,0,1-2.2-2.2v-.1a.691.691,0,0,0-.434-.64.7.7,0,0,0-.776.139l-.068.068a2.2,2.2,0,0,1-3.11,0L2.725,18.636a2.2,2.2,0,0,1,0-3.11l.068-.068a.693.693,0,0,0,.15-.757.7.7,0,0,0-.648-.45H2.2a2.2,2.2,0,0,1-2.2-2.2v-1.6a2.2,2.2,0,0,1,2.2-2.2h.1a.693.693,0,0,0,.641-.434A.7.7,0,0,0,2.8,7.04l-.068-.068a2.2,2.2,0,0,1,0-3.11L3.866,2.729a2.2,2.2,0,0,1,3.109,0L7.04,2.8a.717.717,0,0,0,1.21-.5V2.2a2.2,2.2,0,0,1,2.2-2.2h1.6a2.2,2.2,0,0,1,2.2,2.2v.1a.717.717,0,0,0,1.214.5l.068-.068a2.2,2.2,0,0,1,3.11,0l1.133,1.132a2.2,2.2,0,0,1,0,3.11l-.068.068a.693.693,0,0,0-.15.757.7.7,0,0,0,.648.45h.1Zm.7,2.2a.7.7,0,0,0-.7-.7h-.1a2.217,2.217,0,0,1-1.563-3.771l.068-.068a.7.7,0,0,0,0-.988L17.578,3.789a.7.7,0,0,0-.988,0l-.068.068A2.217,2.217,0,0,1,12.75,2.3V2.2a.7.7,0,0,0-.7-.7h-1.6a.7.7,0,0,0-.7.7v.1A2.218,2.218,0,0,1,5.978,3.857l-.068-.068a.7.7,0,0,0-.988,0L3.79,4.922a.7.7,0,0,0,0,.988l.068.068A2.217,2.217,0,0,1,2.3,9.75H2.2a.7.7,0,0,0-.7.7v1.6a.7.7,0,0,0,.7.7h.1a2.217,2.217,0,0,1,1.563,3.772l-.068.068a.7.7,0,0,0,0,.989l1.132,1.132a.7.7,0,0,0,.988,0l.068-.068A2.213,2.213,0,0,1,9.75,20.2v.1a.7.7,0,0,0,.7.7h1.6a.7.7,0,0,0,.7-.7v-.1a2.218,2.218,0,0,1,3.771-1.562l.067.068a.7.7,0,0,0,.988,0l1.133-1.132a.7.7,0,0,0,0-.989l-.067-.068a2.217,2.217,0,0,1,1.562-3.771h.1a.7.7,0,0,0,.7-.7Z" transform="translate(0.75 0.75)" fill="#212121"/>
      <path id="Vector-2" data-name="Vector" d="M5.25,0A5.25,5.25,0,1,1,2.333.885,5.256,5.256,0,0,1,5.25,0Zm0,9a3.75,3.75,0,1,0-2.083-.632A3.755,3.755,0,0,0,5.25,9Z" transform="translate(6.75 6.75)" fill="#212121"/>
    </g>
  </g>
</svg>
